inDegrees=yes
name=ik_dynamic
DataType=double
version=3
OpenSimVersion=4.5
endheader
time	pelvis_tilt	pelvis_list	pelvis_rotation	pelvis_tx	pelvis_ty	pelvis_tz	hip_flexion_r	hip_adduction_r	hip_rotation_r	knee_angle_r	knee_angle_r_beta	ankle_angle_r	subtalar_angle_r	mtp_angle_r	hip_flexion_l	hip_adduction_l	hip_rotation_l	knee_angle_l	knee_angle_l_beta	ankle_angle_l	subtalar_angle_l	mtp_angle_l	lumbar_extension	lumbar_bending	lumbar_rotation	arm_flex_r	arm_add_r	arm_rot_r	elbow_flex_r	pro_sup_r	wrist_flex_r	wrist_dev_r	arm_flex_l	arm_add_l	arm_rot_l	elbow_flex_l	pro_sup_l	wrist_flex_l	wrist_dev_l
11.25000000000002	190.7103058224435	2.311508186816035	210.3260097270428	0	0.9399999999999999	0	17.67537944784064	-7.681918474141673	-24.92716200982746	0.03596563158552073	0.0006277186887266052	-4.998724627169385	0	0	14.76293625179263	6.76371298245638	28.02351613204204	4.334237595676715	0.07564671660828143	-4.998724627169385	0	0	0	0	0	0	-10.66542747435224	0	72.83736755774316	45.08124309709731	0	0	0	-10.66542747435224	0	72.83736755774316	45.08124309709731	0	0
11.30000000000003	186.7823539488208	3.142587108751191	201.266808540317	0	0.9399999999999999	0	15.60915154953814	-5.192485196767732	-16.23364527034147	0.02799525793736564	0.0004886094259521068	-4.998800511186102	0	0	10.59088976867013	2.075696189429842	20.68518944520319	2.37320006394793	0.04142015492443135	-4.998800511186102	0	0	0	0	0	0	-10.71451659237546	0	72.87896844315871	45.07787166577432	0	0	0	-10.71451659237546	0	72.87896844315871	45.07787166577432	0	0
11.35000000000003	182.4620972139904	4.031760835351225	190.0473446690405	0	0.9399999999999999	0	12.69352901741523	-1.397071313822597	-5.855280160248578	0.0239063589201313	0.0004172446753198072	-4.998818391509723	0	0	4.888400921123626	-0.9039705198813084	10.34819231958279	0.890329401795824	0.01553917948864864	-4.998818391509723	0	0	0	0	0	0	-10.72185903846484	0	72.88604107992506	45.07716156022053	0	0	0	-10.72185903846484	0	72.88604107992506	45.07716156022053	0	0
11.40000000000003	178.8763067666147	4.56750969957695	178.6031021275486	0	0.9399999999999999	0	8.980999400122064	1.545602732758604	4.96718419101704	0.02330585631563899	0.0004067639277046152	-4.998862544945785	0	0	-0.3162404456947929	-2.111517595413698	-0.8939411288153932	0.2456320787759787	0.004287088523158912	-4.998862544945785	0	0	0	0	0	0	-10.74022525737403	0	72.90373059374218	45.07539464147478	0	0	0	-10.74022525737403	0	72.90373059374218	45.07539464147478	0	0
11.45000000000003	175.7269470496846	0.5154576639759083	167.6276879013026	0	0.9399999999999999	0	5.767130582430886	-1.725532318855211	15.66626812393614	0.02340676661610817	0.0004085251446969791	-4.998895289713446	0	0	-3.72265929051106	2.270157303099956	-11.5160531864205	0.09589860315747553	0.001673746373161378	-4.998895289713446	0	0	0	0	0	0	-10.75439778086136	0	72.91730851604433	45.07406197853661	0	0	0	-10.75439778086136	0	72.91730851604433	45.07406197853661	0	0
11.50000000000003	172.8745811368589	-1.209866589894881	160.0845262520542	0	0.9399999999999999	0	2.634141353416823	-4.083396506792234	21.71127502677509	0.02536048524868686	0.0004426239674930386	-4.998947187413693	0	0	-6.204762914170537	5.516644670468405	-18.50366440537689	0.05228078985517976	0.0009124719185161363	-4.998947187413693	0	0	0	0	0	0	-10.78807529045558	0	72.94620882873893	45.07171490796922	0	0	0	-10.78807529045558	0	72.94620882873893	45.07171490796922	0	0
11.55000000000003	172.3911335712981	-1.507686985504343	160.4840366831532	0	0.9399999999999999	0	1.761775241119103	-5.673939274769605	19.4667904788028	0.02449483217767962	0.000427515471223962	-4.998955944956121	0	0	-7.103206027751432	6.175756217330748	-17.71861140942911	0.03720847476940236	0.0006494103943713091	-4.998955944956121	0	0	0	0	0	0	-10.79217767199343	0	72.95016711194269	45.07133988298759	0	0	0	-10.79217767199343	0	72.95016711194269	45.07133988298759	0	0
11.60000000000003	174.5616841728813	3.866911046883864	164.7962320346139	0	0.9399999999999999	0	1.109434918841753	-2.105866927048456	12.26003501853137	0.02243806621606989	0.000391618133250925	-4.998999439085619	0	0	-7.26061472160235	0.67703073213585	-13.81650996939058	0.02995461998727067	0.0005228067449615751	-4.998999439085619	0	0	0	0	0	0	-10.82351153467647	0	72.97643842426743	45.06930859425914	0	0	0	-10.82351153467647	0	72.97643842426743	45.06930859425914	0	0
11.65000000000003	175.4537819160448	7.891264090935606	168.3911181281162	0	0.9399999999999999	0	-0.8805297026585039	-0.3328203193339671	4.184644025421269	0.02131495085909817	0.000372016072392057	-4.999024945685261	0	0	-7.292725663942727	-3.748520407036869	-10.1915230511646	0.02599948590056855	0.0004537766327907642	-4.999024945685261	0	0	0	0	0	0	-10.8413626086268	0	72.99157203800675	45.068121387195	0	0	0	-10.8413626086268	0	72.99157203800675	45.068121387195	0	0
11.70000000000003	175.3080302762079	6.027447940778608	172.4326520971906	0	0.9399999999999999	0	-4.155154056491479	-3.637802949264746	-3.952354126018329	0.02139415870542416	0.0003733985101038592	-4.999042177768372	0	0	-6.890169114663595	-2.540780467054028	-6.025806020438593	0.02631559436427132	0.0004592937662757986	-4.999042177768372	0	0	0	0	0	0	-10.85279780434957	0	73.00155803066582	45.06731626710591	0	0	0	-10.85279780434957	0	73.00155803066582	45.06731626710591	0	0
11.75000000000003	175.4595263790785	7.942714178098543	175.198084903329	0	0.9399999999999999	0	-7.667012408688765	-0.9224818176676186	-9.519682024627167	0.02394844591931333	0.0004179792320278179	-4.999060073760514	0	0	-6.456668184954014	-4.620111084815579	-4.545402234019591	0.03572092999952214	0.0006234478403660778	-4.999060073760514	0	0	0	0	0	0	-10.86516911061103	0	73.01234788909549	45.06646260651085	0	0	0	-10.86516911061103	0	73.01234788909549	45.06646260651085	0	0
11.80000000000003	175.6366110563981	6.715769908413272	176.8882123293957	0	0.9399999999999999	0	-8.016205596750551	-0.3204922366483139	-13.39596146395777	0.03374763324652417	0.00058900731490735	-4.999075783784143	0	0	-4.233781078605387	-4.235110405716442	-4.697390895452675	0.1214739494714281	0.002120120373677645	-4.999075783784143	0	0	0	0	0	0	-10.87685971360924	0	73.02222359260733	45.0657087631678	0	0	0	-10.87685971360924	0	73.02222359260733	45.0657087631678	0	0
11.85000000000003	175.9422650455824	6.638593496957009	178.4570904839113	0	0.9399999999999999	0	-8.016733145772131	2.755859956718531	-13.83350160929792	0.07102149624100426	0.001239558949098301	-4.999114088777065	0	0	1.077454143099609	-4.085469500995944	-5.352435499213537	4.214743498030765	0.07356115116765997	-4.999114088777065	0	0	0	0	0	0	-10.91129247386418	0	73.04993571778402	45.06377540195791	0	0	0	-10.91129247386418	0	73.04993571778402	45.06377540195791	0	0
11.90000000000003	176.5142407547791	5.59982044559519	180.4673985332393	0	0.9399999999999999	0	-6.329118754823684	4.143883864969075	-12.83053226298871	0.4598034632458596	0.008025084345712983	-4.999145929448592	0	0	7.653558262039086	-2.145765150727292	-5.163942691900547	10.1617869103158	0.1773566394710724	-4.999145929448592	0	0	0	0	0	0	-10.93875620309272	0	73.07221479846429	45.0621911445193	0	0	0	-10.93875620309272	0	73.07221479846429	45.0621911445193	0	0
11.95000000000003	177.2869612671916	4.806324468963341	182.9582927257674	0	0.9399999999999999	0	-2.698148478241366	5.328231819721606	-10.61958587909377	2.513446857935256	0.04386792324487639	-4.999186136793103	0	0	13.46616780862803	-1.928573941420603	-4.255167988189408	15.55902377001003	0.2715561931827359	-4.999186136793103	0	0	0	0	0	0	-10.9761211918367	0	73.10207358674852	45.06014043375915	0	0	0	-10.9761211918367	0	73.10207358674852	45.06014043375915	0	0
12.00000000000004	178.027529584613	4.860318790799019	185.5051097778664	0	0.9399999999999999	0	0.5434419853017716	6.894159910676268	-7.09059872438472	4.375998874612768	0.0763755884255593	-4.999220406019299	0	0	18.62858094926457	-3.697431820666292	-2.841720249101543	20.33878836334676	0.3549788228067097	-4.999220406019299	0	0	0	0	0	0	-11.00741311206392	0	73.12725253987405	45.0583954752504	0	0	0	-11.00741311206392	0	73.12725253987405	45.0583954752504	0	0
12.05000000000004	178.8730995881681	4.940742037152597	188.3853152837063	0	0.9399999999999999	0	2.342567738344447	5.878947259986289	-3.705630160302089	5.169765828744613	0.09022943526868681	-4.999250521618302	0	0	22.56900331619752	-4.573318451401544	-0.2722292339995923	23.4635538106882	0.4095162682153713	-4.999250521618302	0	0	0	0	0	0	-11.03748909194397	0	73.15099473623972	45.05681797443941	0	0	0	-11.03748909194397	0	73.15099473623972	45.05681797443941	0	0
12.10000000000004	180.2047401477326	3.870693459236438	191.8054860145486	0	0.9399999999999999	0	4.788691952115396	1.888832861169691	-3.156738905263634	7.416244611222951	0.1294378865991273	-4.999278068749074	0	0	24.50649647096456	-2.364703137454311	2.96960124642608	24.07015267812089	0.4201034156909405	-4.999278068749074	0	0	0	0	0	0	-11.06558450017036	0	73.17307692363811	45.05536543380065	0	0	0	-11.06558450017036	0	73.17307692363811	45.05536543380065	0	0
12.15000000000004	181.8464782153791	3.308214036416894	195.9713241688169	0	0.9399999999999999	0	7.086668340290508	-0.7626182788242778	-9.336873642343345	10.01764399973778	0.1748408710880783	-4.999288600090734	0	0	24.25367821233375	1.354762358563927	7.481366035277173	22.1095585467023	0.3858845928024076	-4.999288600090734	0	0	0	0	0	0	-11.07214559001837	0	73.17901273515561	45.05487224492241	0	0	0	-11.07214559001837	0	73.17901273515561	45.05487224492241	0	0
12.20000000000004	184.6207958571193	2.002919544769066	201.3670217558619	0	0.9399999999999999	0	9.350778091227614	1.044044809311348	-17.36947893186953	8.535481465577192	0.148972254817273	-4.999305695027261	0	0	24.26855082044612	6.022467104021969	12.86144024159176	19.73089246297798	0.3443690378358991	-4.999305695027261	0	0	0	0	0	0	-11.08746742465534	0	73.19152489039755	45.05399557065784	0	0	0	-11.08746742465534	0	73.19152489039755	45.05399557065784	0	0
12.25000000000004	188.1754285796794	1.029053259726094	208.5987632390429	0	0.9399999999999999	0	12.22860895969766	-1.544386947811596	-24.75255666186748	6.014429012231485	0.1049715888909097	-4.999316048922918	0	0	27.95950516897735	11.07581242199164	17.12054546014937	21.23856028769654	0.3706828054036188	-4.999316048922918	0	0	0	0	0	0	-11.09418158183399	0	73.19756305508815	45.05350278274943	0	0	0	-11.09418158183399	0	73.19756305508815	45.05350278274943	0	0
12.30000000000004	192.9170495149526	-0.6991146767062069	216.433884815497	0	0.9399999999999999	0	15.85642986812187	-6.00525354623104	-31.64683885475947	1.142395944337997	0.01993857059012792	-4.999339378129823	0	0	30.0005061534382	18.09486477541628	22.4340673840755	20.94133913115134	0.3654953176153195	-4.999339378129823	0	0	0	0	0	0	-11.11792269553687	0	73.21637030727715	45.05226165736189	0	0	0	-11.11792269553687	0	73.21637030727715	45.05226165736189	0	0
12.35000000000004	194.4613407715228	0.7417957295377273	220.5744839481193	0	0.9399999999999999	0	19.84238867558204	-7.040887394033346	-34.60916742664021	0.1135917066417855	0.001982549283858667	-4.9993464529163	0	0	27.18553100637445	17.8911877910163	29.04326582275669	17.35368126028902	0.3028788753336825	-4.9993464529163	0	0	0	0	0	0	-11.12418870800412	0	73.22159365481544	45.0518926902706	0	0	0	-11.12418870800412	0	73.22159365481544	45.0518926902706	0	0
